<?xml version="1.0" standalone="no"?>
<!DOCTYPE svg PUBLIC "-//W3C//DTD SVG 20010904//EN"
 "http://www.w3.org/TR/2001/REC-SVG-20010904/DTD/svg10.dtd">
<svg version="1.0" xmlns="http://www.w3.org/2000/svg"
 width="600.000000pt" height="600.000000pt" viewBox="0 0 600.000000 600.000000"
 preserveAspectRatio="xMidYMid meet">

<g transform="translate(0.000000,600.000000) scale(0.100000,-0.100000)"
fill="#000000" stroke="none">
<path d="M3363 2408 c2 -7 10 -13 17 -13 7 0 15 6 18 13 2 7 -5 12 -18 12 -13
0 -20 -5 -17 -12z"/>
<path d="M3735 2411 c-3 -5 -1 -12 5 -16 12 -7 30 2 30 16 0 12 -27 12 -35 0z"/>
<path d="M4013 2408 c2 -7 10 -13 17 -13 7 0 15 6 18 13 2 7 -5 12 -18 12 -13
0 -20 -5 -17 -12z"/>
<path d="M4557 2414 c-9 -10 2 -24 19 -24 8 0 14 7 14 15 0 15 -21 21 -33 9z"/>
<path d="M851 2302 c-19 -53 -36 -103 -39 -109 -8 -25 19 -13 28 12 9 22 15
25 64 25 49 0 54 -2 60 -25 4 -14 13 -25 21 -25 14 0 14 1 -52 178 -25 68 -43
56 -82 -56z m76 3 l21 -55 -45 0 c-35 0 -44 3 -40 14 3 8 11 32 18 55 7 23 15
41 19 41 4 0 16 -25 27 -55z"/>
<path d="M3867 2380 c3 -12 -1 -22 -11 -26 -20 -8 -21 -24 -1 -24 11 0 15 -17
17 -72 l3 -73 33 -3 c36 -4 45 15 10 20 -21 3 -23 9 -26 66 -3 61 -2 62 23 62
14 0 25 5 25 10 0 6 -11 10 -25 10 -20 0 -25 5 -25 25 0 15 -6 25 -14 25 -9 0
-12 -7 -9 -20z"/>
<path d="M4410 2380 c0 -11 -7 -23 -16 -27 -15 -6 -15 -7 -1 -18 11 -8 17 -32
19 -81 l3 -69 33 -3 c36 -4 45 15 10 20 -21 3 -23 9 -26 66 -3 61 -2 62 23 62
14 0 25 5 25 10 0 6 -11 10 -25 10 -20 0 -25 5 -25 25 0 14 -4 25 -10 25 -5 0
-10 -9 -10 -20z"/>
<path d="M3538 2346 c-16 -8 -28 -11 -28 -5 0 5 -4 9 -10 9 -6 0 -10 -35 -10
-85 0 -50 4 -85 10 -85 6 0 10 27 10 60 0 47 4 64 20 80 24 24 38 25 68 4 19
-13 22 -24 22 -80 0 -44 4 -64 13 -64 16 0 11 145 -6 159 -23 18 -62 21 -89 7z"/>
<path d="M4175 2348 c-33 -18 -45 -40 -45 -82 1 -47 16 -71 53 -85 29 -11 52
-6 80 17 15 14 17 13 17 -1 0 -10 6 -17 14 -17 11 0 14 19 14 85 0 64 -3 85
-13 85 -7 0 -15 -5 -17 -12 -3 -8 -11 -7 -28 5 -28 20 -47 21 -75 5z m79 -29
c51 -40 24 -121 -41 -121 -32 0 -63 33 -63 69 0 26 40 73 63 73 8 0 26 -9 41
-21z"/>
<path d="M4940 2347 c-65 -33 -61 -135 6 -163 20 -8 45 -12 57 -8 25 7 57 33
57 46 0 14 -19 9 -41 -13 -24 -24 -65 -20 -86 8 -27 36 -16 43 62 43 l75 0 -6
28 c-13 56 -74 86 -124 59z m88 -34 c21 -28 14 -33 -48 -33 -64 0 -72 8 -39
41 24 24 65 20 87 -8z"/>
<path d="M3370 2265 c0 -50 4 -85 10 -85 6 0 10 35 10 85 0 50 -4 85 -10 85
-6 0 -10 -35 -10 -85z"/>
<path d="M3740 2265 c0 -50 4 -85 10 -85 6 0 10 35 10 85 0 50 -4 85 -10 85
-6 0 -10 -35 -10 -85z"/>
<path d="M4020 2265 c0 -50 4 -85 10 -85 6 0 10 35 10 85 0 50 -4 85 -10 85
-6 0 -10 -35 -10 -85z"/>
<path d="M4560 2265 c0 -61 3 -85 13 -85 9 0 12 24 12 85 0 61 -3 85 -12 85
-10 0 -13 -24 -13 -85z"/>
<path d="M4680 2300 c44 -113 49 -122 67 -118 21 4 88 168 68 168 -7 0 -25
-34 -40 -75 -15 -41 -29 -75 -30 -75 -2 0 -15 34 -30 75 -16 43 -33 75 -41 75
-11 0 -9 -11 6 -50z"/>
<path d="M1321 2224 c-11 -13 -15 -14 -22 -2 -6 8 -9 0 -9 -24 0 -34 3 -38 25
-38 23 0 25 4 25 40 0 45 0 45 -19 24z"/>
<path d="M1710 2236 c0 -5 9 -24 21 -42 17 -28 27 -34 55 -34 37 0 37 6 1 53
-15 17 -33 24 -23 8 8 -13 -37 0 -46 13 -4 6 -8 7 -8 2z"/>
<path d="M2126 2219 c51 -57 176 -87 284 -70 66 11 149 53 158 81 5 13 3 13
-11 1 -12 -10 -21 -10 -30 -3 -9 8 -25 5 -57 -10 -64 -31 -188 -31 -247 -2
-24 12 -43 17 -43 12 0 -6 -8 -4 -17 3 -11 10 -14 10 -9 2 4 -7 3 -13 -3 -13
-5 0 -13 5 -16 10 -3 6 -11 10 -17 10 -6 0 -3 -9 8 -21z"/>
<path d="M2711 2203 l-1 -43 230 0 230 0 0 25 0 25 -205 0 c-135 0 -205 4
-205 10 0 7 -6 7 -19 0 -16 -8 -20 -6 -24 8 -3 9 -5 -2 -6 -25z"/>
<path d="M1930 2195 c0 -31 3 -35 25 -35 22 0 25 4 24 38 0 20 -3 31 -6 25 -3
-9 -10 -10 -24 -3 -17 10 -19 7 -19 -25z"/>
</g>
</svg>
